<svg width="285" height="53" viewBox="0 0 285 53" fill="none" xmlns="http://www.w3.org/2000/svg"><rect x="-0.000366211" y="0.677002" width="284.4" height="41.04" rx="11.52" fill="url(#paint0_linear_1816_2629)"></rect><rect x="0.499634" y="1.177" width="283.4" height="40.04" rx="11.02" stroke="url(#paint1_linear_1816_2629)" stroke-opacity="0.3"></rect><path d="M16.8014 26.697V15.5261H20.9905C21.8487 15.5261 22.5687 15.6861 23.1505 16.0061C23.7359 16.3261 24.1778 16.7661 24.4759 17.3261C24.7778 17.8825 24.9287 18.5152 24.9287 19.2243C24.9287 19.9407 24.7778 20.577 24.4759 21.1334C24.1741 21.6897 23.7287 22.1279 23.1396 22.4479C22.5505 22.7643 21.825 22.9225 20.9632 22.9225H18.1869V21.2588H20.6905C21.1923 21.2588 21.6032 21.1716 21.9232 20.997C22.2432 20.8225 22.4796 20.5825 22.6323 20.277C22.7887 19.9716 22.8669 19.6207 22.8669 19.2243C22.8669 18.8279 22.7887 18.4788 22.6323 18.177C22.4796 17.8752 22.2414 17.6407 21.9178 17.4734C21.5978 17.3025 21.185 17.217 20.6796 17.217H18.825V26.697H16.8014ZM28.5737 15.5261V26.697H26.5991V15.5261H28.5737ZM34.3132 26.8607C33.4732 26.8607 32.7478 26.6861 32.1369 26.337C31.5296 25.9843 31.0623 25.4861 30.735 24.8425C30.4078 24.1952 30.2441 23.4334 30.2441 22.557C30.2441 21.6952 30.4078 20.9388 30.735 20.2879C31.0659 19.6334 31.5278 19.1243 32.1205 18.7607C32.7132 18.3934 33.4096 18.2097 34.2096 18.2097C34.7259 18.2097 35.2132 18.2934 35.6714 18.4607C36.1332 18.6243 36.5405 18.8788 36.8932 19.2243C37.2496 19.5697 37.5296 20.0097 37.7332 20.5443C37.9369 21.0752 38.0387 21.7079 38.0387 22.4425V23.0479H31.1714V21.717H36.1459C36.1423 21.3388 36.0605 21.0025 35.9005 20.7079C35.7405 20.4097 35.5169 20.1752 35.2296 20.0043C34.9459 19.8334 34.615 19.7479 34.2369 19.7479C33.8332 19.7479 33.4787 19.8461 33.1732 20.0425C32.8678 20.2352 32.6296 20.4897 32.4587 20.8061C32.2914 21.1188 32.2059 21.4625 32.2023 21.837V22.9988C32.2023 23.4861 32.2914 23.9043 32.4696 24.2534C32.6478 24.5988 32.8969 24.8643 33.2169 25.0497C33.5369 25.2316 33.9114 25.3225 34.3405 25.3225C34.6278 25.3225 34.8878 25.2825 35.1205 25.2025C35.3532 25.1188 35.555 24.997 35.7259 24.837C35.8969 24.677 36.0259 24.4788 36.1132 24.2425L37.9569 24.4497C37.8405 24.937 37.6187 25.3625 37.2914 25.7261C36.9678 26.0861 36.5532 26.3661 36.0478 26.5661C35.5423 26.7625 34.9641 26.8607 34.3132 26.8607ZM42.12 26.8661C41.5891 26.8661 41.1109 26.7716 40.6855 26.5825C40.2637 26.3897 39.9291 26.1061 39.6819 25.7316C39.4382 25.357 39.3164 24.8952 39.3164 24.3461C39.3164 23.8734 39.4037 23.4825 39.5782 23.1734C39.7528 22.8643 39.9909 22.617 40.2928 22.4316C40.5946 22.2461 40.9346 22.1061 41.3128 22.0116C41.6946 21.9134 42.0891 21.8425 42.4964 21.7988C42.9873 21.7479 43.3855 21.7025 43.6909 21.6625C43.9964 21.6188 44.2182 21.5534 44.3564 21.4661C44.4982 21.3752 44.5691 21.2352 44.5691 21.0461V21.0134C44.5691 20.6025 44.4473 20.2843 44.2037 20.0588C43.96 19.8334 43.6091 19.7207 43.1509 19.7207C42.6673 19.7207 42.2837 19.8261 42 20.037C41.72 20.2479 41.5309 20.497 41.4328 20.7843L39.5891 20.5225C39.7346 20.0134 39.9746 19.5879 40.3091 19.2461C40.6437 18.9007 41.0528 18.6425 41.5364 18.4716C42.02 18.297 42.5546 18.2097 43.14 18.2097C43.5437 18.2097 43.9455 18.257 44.3455 18.3516C44.7455 18.4461 45.111 18.6025 45.4419 18.8207C45.7728 19.0352 46.0382 19.3279 46.2382 19.6988C46.4419 20.0697 46.5437 20.5334 46.5437 21.0897V26.697H44.6455V25.5461H44.58C44.46 25.7788 44.2909 25.997 44.0728 26.2007C43.8582 26.4007 43.5873 26.5625 43.26 26.6861C42.9364 26.8061 42.5564 26.8661 42.12 26.8661ZM42.6328 25.4152C43.0291 25.4152 43.3728 25.337 43.6637 25.1807C43.9546 25.0207 44.1782 24.8097 44.3346 24.5479C44.4946 24.2861 44.5746 24.0007 44.5746 23.6916V22.7043C44.5128 22.7552 44.4073 22.8025 44.2582 22.8461C44.1128 22.8897 43.9491 22.9279 43.7673 22.9607C43.5855 22.9934 43.4055 23.0225 43.2273 23.0479C43.0491 23.0734 42.8946 23.0952 42.7637 23.1134C42.4691 23.1534 42.2055 23.2188 41.9728 23.3097C41.74 23.4007 41.5564 23.5279 41.4219 23.6916C41.2873 23.8516 41.22 24.0588 41.22 24.3134C41.22 24.677 41.3528 24.9516 41.6182 25.137C41.8837 25.3225 42.2219 25.4152 42.6328 25.4152ZM55.151 20.5334L53.351 20.7297C53.3 20.5479 53.211 20.377 53.0837 20.217C52.96 20.057 52.7928 19.9279 52.5819 19.8297C52.371 19.7316 52.1128 19.6825 51.8073 19.6825C51.3964 19.6825 51.051 19.7716 50.771 19.9497C50.4946 20.1279 50.3582 20.3588 50.3619 20.6425C50.3582 20.8861 50.4473 21.0843 50.6291 21.237C50.8146 21.3897 51.12 21.5152 51.5455 21.6134L52.9746 21.9188C53.7673 22.0897 54.3564 22.3607 54.7419 22.7316C55.131 23.1025 55.3273 23.5879 55.331 24.1879C55.3273 24.7152 55.1728 25.1807 54.8673 25.5843C54.5655 25.9843 54.1455 26.297 53.6073 26.5225C53.0691 26.7479 52.451 26.8607 51.7528 26.8607C50.7273 26.8607 49.9019 26.6461 49.2764 26.217C48.651 25.7843 48.2782 25.1825 48.1582 24.4116L50.0837 24.2261C50.171 24.6043 50.3564 24.8897 50.64 25.0825C50.9237 25.2752 51.2928 25.3716 51.7473 25.3716C52.2164 25.3716 52.5928 25.2752 52.8764 25.0825C53.1637 24.8897 53.3073 24.6516 53.3073 24.3679C53.3073 24.1279 53.2146 23.9297 53.0291 23.7734C52.8473 23.617 52.5637 23.497 52.1782 23.4134L50.7491 23.1134C49.9455 22.9461 49.351 22.6643 48.9655 22.2679C48.58 21.8679 48.3891 21.3625 48.3928 20.7516C48.3891 20.2352 48.5291 19.7879 48.8128 19.4097C49.1 19.0279 49.4982 18.7334 50.0073 18.5261C50.52 18.3152 51.111 18.2097 51.78 18.2097C52.7619 18.2097 53.5346 18.4188 54.0982 18.837C54.6655 19.2552 55.0164 19.8207 55.151 20.5334ZM60.6682 26.8607C59.8282 26.8607 59.1028 26.6861 58.4919 26.337C57.8846 25.9843 57.4173 25.4861 57.09 24.8425C56.7628 24.1952 56.5991 23.4334 56.5991 22.557C56.5991 21.6952 56.7628 20.9388 57.09 20.2879C57.421 19.6334 57.8828 19.1243 58.4755 18.7607C59.0682 18.3934 59.7646 18.2097 60.5646 18.2097C61.081 18.2097 61.5682 18.2934 62.0264 18.4607C62.4882 18.6243 62.8955 18.8788 63.2482 19.2243C63.6046 19.5697 63.8846 20.0097 64.0882 20.5443C64.2919 21.0752 64.3937 21.7079 64.3937 22.4425V23.0479H57.5264V21.717H62.501C62.4973 21.3388 62.4155 21.0025 62.2555 20.7079C62.0955 20.4097 61.8719 20.1752 61.5846 20.0043C61.301 19.8334 60.97 19.7479 60.5919 19.7479C60.1882 19.7479 59.8337 19.8461 59.5282 20.0425C59.2228 20.2352 58.9846 20.4897 58.8137 20.8061C58.6464 21.1188 58.561 21.4625 58.5573 21.837V22.9988C58.5573 23.4861 58.6464 23.9043 58.8246 24.2534C59.0028 24.5988 59.2519 24.8643 59.5719 25.0497C59.8919 25.2316 60.2664 25.3225 60.6955 25.3225C60.9828 25.3225 61.2428 25.2825 61.4755 25.2025C61.7082 25.1188 61.91 24.997 62.081 24.837C62.2519 24.677 62.381 24.4788 62.4682 24.2425L64.3119 24.4497C64.1955 24.937 63.9737 25.3625 63.6464 25.7261C63.3228 26.0861 62.9082 26.3661 62.4028 26.5661C61.8973 26.7625 61.3191 26.8607 60.6682 26.8607ZM71.8487 21.7879V26.697H69.8741V15.5261H71.805V19.7425H71.9032C72.0996 19.2697 72.4032 18.897 72.8141 18.6243C73.2287 18.3479 73.756 18.2097 74.396 18.2097C74.9778 18.2097 75.485 18.3316 75.9178 18.5752C76.3505 18.8188 76.685 19.1752 76.9214 19.6443C77.1614 20.1134 77.2814 20.6861 77.2814 21.3625V26.697H75.3069V21.6679C75.3069 21.1043 75.1614 20.6661 74.8705 20.3534C74.5832 20.037 74.1796 19.8788 73.6596 19.8788C73.3105 19.8788 72.9978 19.9552 72.7214 20.1079C72.4487 20.257 72.2341 20.4734 72.0778 20.757C71.925 21.0407 71.8487 21.3843 71.8487 21.7879ZM83.0032 26.8607C82.1632 26.8607 81.4378 26.6861 80.8269 26.337C80.2196 25.9843 79.7523 25.4861 79.425 24.8425C79.0978 24.1952 78.9341 23.4334 78.9341 22.557C78.9341 21.6952 79.0978 20.9388 79.425 20.2879C79.756 19.6334 80.2178 19.1243 80.8105 18.7607C81.4032 18.3934 82.0996 18.2097 82.8996 18.2097C83.416 18.2097 83.9032 18.2934 84.3614 18.4607C84.8232 18.6243 85.2305 18.8788 85.5832 19.2243C85.9396 19.5697 86.2196 20.0097 86.4232 20.5443C86.6269 21.0752 86.7287 21.7079 86.7287 22.4425V23.0479H79.8614V21.717H84.836C84.8323 21.3388 84.7505 21.0025 84.5905 20.7079C84.4305 20.4097 84.2069 20.1752 83.9196 20.0043C83.636 19.8334 83.305 19.7479 82.9269 19.7479C82.5232 19.7479 82.1687 19.8461 81.8632 20.0425C81.5578 20.2352 81.3196 20.4897 81.1487 20.8061C80.9814 21.1188 80.896 21.4625 80.8923 21.837V22.9988C80.8923 23.4861 80.9814 23.9043 81.1596 24.2534C81.3378 24.5988 81.5869 24.8643 81.9069 25.0497C82.2269 25.2316 82.6014 25.3225 83.0305 25.3225C83.3178 25.3225 83.5778 25.2825 83.8105 25.2025C84.0432 25.1188 84.245 24.997 84.416 24.837C84.5869 24.677 84.716 24.4788 84.8032 24.2425L86.6469 24.4497C86.5305 24.937 86.3087 25.3625 85.9814 25.7261C85.6578 26.0861 85.2432 26.3661 84.7378 26.5661C84.2323 26.7625 83.6541 26.8607 83.0032 26.8607ZM90.3737 15.5261V26.697H88.3991V15.5261H90.3737ZM92.4041 29.8388V18.3188H94.346V19.7043H94.4605C94.5623 19.5007 94.706 19.2843 94.8914 19.0552C95.0769 18.8225 95.3278 18.6243 95.6441 18.4607C95.9605 18.2934 96.3641 18.2097 96.855 18.2097C97.5023 18.2097 98.086 18.3752 98.606 18.7061C99.1296 19.0334 99.5441 19.5188 99.8496 20.1625C100.159 20.8025 100.313 21.5879 100.313 22.5188C100.313 23.4388 100.162 24.2207 99.8605 24.8643C99.5587 25.5079 99.1478 25.9988 98.6278 26.337C98.1078 26.6752 97.5187 26.8443 96.8605 26.8443C96.3805 26.8443 95.9823 26.7643 95.666 26.6043C95.3496 26.4443 95.095 26.2516 94.9023 26.0261C94.7132 25.797 94.566 25.5807 94.4605 25.377H94.3787V29.8388H92.4041ZM94.3405 22.5079C94.3405 23.0497 94.4169 23.5243 94.5696 23.9316C94.726 24.3388 94.9496 24.657 95.2405 24.8861C95.535 25.1116 95.8914 25.2243 96.3096 25.2243C96.746 25.2243 97.1114 25.1079 97.406 24.8752C97.7005 24.6388 97.9223 24.317 98.0714 23.9097C98.2241 23.4988 98.3005 23.0316 98.3005 22.5079C98.3005 21.9879 98.226 21.5261 98.0769 21.1225C97.9278 20.7188 97.706 20.4025 97.4114 20.1734C97.1169 19.9443 96.7496 19.8297 96.3096 19.8297C95.8878 19.8297 95.5296 19.9407 95.235 20.1625C94.9405 20.3843 94.7169 20.6952 94.5641 21.0952C94.415 21.4952 94.3405 21.9661 94.3405 22.5079ZM109.469 26.8607C108.651 26.8607 107.941 26.6807 107.341 26.3207C106.741 25.9607 106.276 25.457 105.945 24.8097C105.618 24.1625 105.454 23.4061 105.454 22.5407C105.454 21.6752 105.618 20.917 105.945 20.2661C106.276 19.6152 106.741 19.1097 107.341 18.7497C107.941 18.3897 108.651 18.2097 109.469 18.2097C110.287 18.2097 110.996 18.3897 111.596 18.7497C112.196 19.1097 112.66 19.6152 112.987 20.2661C113.318 20.917 113.483 21.6752 113.483 22.5407C113.483 23.4061 113.318 24.1625 112.987 24.8097C112.66 25.457 112.196 25.9607 111.596 26.3207C110.996 26.6807 110.287 26.8607 109.469 26.8607ZM109.48 25.2788C109.923 25.2788 110.294 25.157 110.592 24.9134C110.891 24.6661 111.112 24.3352 111.258 23.9207C111.407 23.5061 111.481 23.0443 111.481 22.5352C111.481 22.0225 111.407 21.5588 111.258 21.1443C111.112 20.7261 110.891 20.3934 110.592 20.1461C110.294 19.8988 109.923 19.7752 109.48 19.7752C109.025 19.7752 108.647 19.8988 108.345 20.1461C108.047 20.3934 107.823 20.7261 107.674 21.1443C107.529 21.5588 107.456 22.0225 107.456 22.5352C107.456 23.0443 107.529 23.5061 107.674 23.9207C107.823 24.3352 108.047 24.6661 108.345 24.9134C108.647 25.157 109.025 25.2788 109.48 25.2788ZM120.499 23.1734V18.3188H122.474V26.697H120.559V25.2079H120.472C120.283 25.677 119.972 26.0607 119.539 26.3588C119.11 26.657 118.581 26.8061 117.952 26.8061C117.403 26.8061 116.917 26.6843 116.496 26.4407C116.077 26.1934 115.75 25.8352 115.514 25.3661C115.277 24.8934 115.159 24.3225 115.159 23.6534V18.3188H117.134V23.3479C117.134 23.8788 117.279 24.3007 117.57 24.6134C117.861 24.9261 118.243 25.0825 118.716 25.0825C119.006 25.0825 119.288 25.0116 119.561 24.8697C119.834 24.7279 120.057 24.517 120.232 24.237C120.41 23.9534 120.499 23.5988 120.499 23.1734ZM124.504 26.697V18.3188H126.419V19.7152H126.506C126.659 19.2316 126.92 18.8588 127.291 18.597C127.666 18.3316 128.093 18.1988 128.573 18.1988C128.682 18.1988 128.804 18.2043 128.939 18.2152C129.077 18.2225 129.191 18.2352 129.282 18.2534V20.0697C129.199 20.0407 129.066 20.0152 128.884 19.9934C128.706 19.9679 128.533 19.9552 128.366 19.9552C128.006 19.9552 127.682 20.0334 127.395 20.1897C127.111 20.3425 126.888 20.5552 126.724 20.8279C126.56 21.1007 126.479 21.4152 126.479 21.7716V26.697H124.504ZM138.059 26.8607C137.222 26.8607 136.504 26.677 135.904 26.3097C135.308 25.9425 134.848 25.4352 134.524 24.7879C134.204 24.137 134.044 23.3879 134.044 22.5407C134.044 21.6897 134.208 20.9388 134.535 20.2879C134.862 19.6334 135.324 19.1243 135.92 18.7607C136.52 18.3934 137.23 18.2097 138.048 18.2097C138.728 18.2097 139.33 18.3352 139.853 18.5861C140.38 18.8334 140.8 19.1843 141.113 19.6388C141.426 20.0897 141.604 20.617 141.648 21.2207H139.76C139.684 20.817 139.502 20.4807 139.215 20.2116C138.931 19.9388 138.551 19.8025 138.075 19.8025C137.671 19.8025 137.317 19.9116 137.011 20.1297C136.706 20.3443 136.468 20.6534 136.297 21.057C136.13 21.4607 136.046 21.9443 136.046 22.5079C136.046 23.0788 136.13 23.5697 136.297 23.9807C136.464 24.3879 136.699 24.7025 137 24.9243C137.306 25.1425 137.664 25.2516 138.075 25.2516C138.366 25.2516 138.626 25.197 138.855 25.0879C139.088 24.9752 139.282 24.8134 139.439 24.6025C139.595 24.3916 139.702 24.1352 139.76 23.8334H141.648C141.6 24.4261 141.426 24.9516 141.124 25.4097C140.822 25.8643 140.411 26.2207 139.891 26.4788C139.371 26.7334 138.76 26.8607 138.059 26.8607ZM146.924 26.8607C146.106 26.8607 145.396 26.6807 144.796 26.3207C144.196 25.9607 143.731 25.457 143.4 24.8097C143.073 24.1625 142.909 23.4061 142.909 22.5407C142.909 21.6752 143.073 20.917 143.4 20.2661C143.731 19.6152 144.196 19.1097 144.796 18.7497C145.396 18.3897 146.106 18.2097 146.924 18.2097C147.742 18.2097 148.451 18.3897 149.051 18.7497C149.651 19.1097 150.115 19.6152 150.442 20.2661C150.773 20.917 150.938 21.6752 150.938 22.5407C150.938 23.4061 150.773 24.1625 150.442 24.8097C150.115 25.457 149.651 25.9607 149.051 26.3207C148.451 26.6807 147.742 26.8607 146.924 26.8607ZM146.935 25.2788C147.378 25.2788 147.749 25.157 148.047 24.9134C148.346 24.6661 148.567 24.3352 148.713 23.9207C148.862 23.5061 148.936 23.0443 148.936 22.5352C148.936 22.0225 148.862 21.5588 148.713 21.1443C148.567 20.7261 148.346 20.3934 148.047 20.1461C147.749 19.8988 147.378 19.7752 146.935 19.7752C146.48 19.7752 146.102 19.8988 145.8 20.1461C145.502 20.3934 145.278 20.7261 145.129 21.1443C144.984 21.5588 144.911 22.0225 144.911 22.5352C144.911 23.0443 144.984 23.5061 145.129 23.9207C145.278 24.3352 145.502 24.6661 145.8 24.9134C146.102 25.157 146.48 25.2788 146.935 25.2788ZM154.589 21.7879V26.697H152.614V18.3188H154.501V19.7425H154.6C154.792 19.2734 155.1 18.9007 155.521 18.6243C155.947 18.3479 156.472 18.2097 157.098 18.2097C157.676 18.2097 158.18 18.3334 158.609 18.5807C159.041 18.8279 159.376 19.1861 159.612 19.6552C159.852 20.1243 159.971 20.6934 159.967 21.3625V26.697H157.992V21.6679C157.992 21.1079 157.847 20.6697 157.556 20.3534C157.269 20.037 156.871 19.8788 156.361 19.8788C156.016 19.8788 155.709 19.9552 155.44 20.1079C155.174 20.257 154.965 20.4734 154.812 20.757C154.663 21.0407 154.589 21.3843 154.589 21.7879ZM169.158 18.3188L166.174 26.697H163.992L161.009 18.3188H163.114L165.04 24.5425H165.127L167.058 18.3188H169.158ZM173.948 26.8607C173.108 26.8607 172.383 26.6861 171.772 26.337C171.165 25.9843 170.697 25.4861 170.37 24.8425C170.043 24.1952 169.879 23.4334 169.879 22.557C169.879 21.6952 170.043 20.9388 170.37 20.2879C170.701 19.6334 171.163 19.1243 171.756 18.7607C172.348 18.3934 173.045 18.2097 173.845 18.2097C174.361 18.2097 174.848 18.2934 175.306 18.4607C175.768 18.6243 176.176 18.8788 176.528 19.2243C176.885 19.5697 177.165 20.0097 177.368 20.5443C177.572 21.0752 177.674 21.7079 177.674 22.4425V23.0479H170.806V21.717H175.781C175.777 21.3388 175.696 21.0025 175.536 20.7079C175.376 20.4097 175.152 20.1752 174.865 20.0043C174.581 19.8334 174.25 19.7479 173.872 19.7479C173.468 19.7479 173.114 19.8461 172.808 20.0425C172.503 20.2352 172.265 20.4897 172.094 20.8061C171.926 21.1188 171.841 21.4625 171.837 21.837V22.9988C171.837 23.4861 171.926 23.9043 172.105 24.2534C172.283 24.5988 172.532 24.8643 172.852 25.0497C173.172 25.2316 173.546 25.3225 173.976 25.3225C174.263 25.3225 174.523 25.2825 174.756 25.2025C174.988 25.1188 175.19 24.997 175.361 24.837C175.532 24.677 175.661 24.4788 175.748 24.2425L177.592 24.4497C177.476 24.937 177.254 25.3625 176.926 25.7261C176.603 26.0861 176.188 26.3661 175.683 26.5661C175.177 26.7625 174.599 26.8607 173.948 26.8607ZM179.344 26.697V18.3188H181.259V19.7152H181.346C181.499 19.2316 181.76 18.8588 182.131 18.597C182.506 18.3316 182.933 18.1988 183.413 18.1988C183.522 18.1988 183.644 18.2043 183.779 18.2152C183.917 18.2225 184.031 18.2352 184.122 18.2534V20.0697C184.039 20.0407 183.906 20.0152 183.724 19.9934C183.546 19.9679 183.373 19.9552 183.206 19.9552C182.846 19.9552 182.522 20.0334 182.235 20.1897C181.951 20.3425 181.728 20.5552 181.564 20.8279C181.4 21.1007 181.319 21.4152 181.319 21.7716V26.697H179.344ZM192.056 20.5334L190.256 20.7297C190.205 20.5479 190.116 20.377 189.989 20.217C189.865 20.057 189.698 19.9279 189.487 19.8297C189.276 19.7316 189.018 19.6825 188.712 19.6825C188.301 19.6825 187.956 19.7716 187.676 19.9497C187.4 20.1279 187.263 20.3588 187.267 20.6425C187.263 20.8861 187.352 21.0843 187.534 21.237C187.72 21.3897 188.025 21.5152 188.45 21.6134L189.88 21.9188C190.672 22.0897 191.261 22.3607 191.647 22.7316C192.036 23.1025 192.232 23.5879 192.236 24.1879C192.232 24.7152 192.078 25.1807 191.772 25.5843C191.47 25.9843 191.05 26.297 190.512 26.5225C189.974 26.7479 189.356 26.8607 188.658 26.8607C187.632 26.8607 186.807 26.6461 186.181 26.217C185.556 25.7843 185.183 25.1825 185.063 24.4116L186.989 24.2261C187.076 24.6043 187.261 24.8897 187.545 25.0825C187.829 25.2752 188.198 25.3716 188.652 25.3716C189.121 25.3716 189.498 25.2752 189.781 25.0825C190.069 24.8897 190.212 24.6516 190.212 24.3679C190.212 24.1279 190.12 23.9297 189.934 23.7734C189.752 23.617 189.469 23.497 189.083 23.4134L187.654 23.1134C186.85 22.9461 186.256 22.6643 185.87 22.2679C185.485 21.8679 185.294 21.3625 185.298 20.7516C185.294 20.2352 185.434 19.7879 185.718 19.4097C186.005 19.0279 186.403 18.7334 186.912 18.5261C187.425 18.3152 188.016 18.2097 188.685 18.2097C189.667 18.2097 190.44 18.4188 191.003 18.837C191.57 19.2552 191.921 19.8207 192.056 20.5334ZM193.864 26.697V18.3188H195.839V26.697H193.864ZM194.857 17.1297C194.544 17.1297 194.275 17.0261 194.05 16.8188C193.824 16.6079 193.711 16.3552 193.711 16.0607C193.711 15.7625 193.824 15.5097 194.05 15.3025C194.275 15.0916 194.544 14.9861 194.857 14.9861C195.173 14.9861 195.442 15.0916 195.664 15.3025C195.89 15.5097 196.002 15.7625 196.002 16.0607C196.002 16.3552 195.89 16.6079 195.664 16.8188C195.442 17.0261 195.173 17.1297 194.857 17.1297ZM201.524 26.8607C200.706 26.8607 199.996 26.6807 199.396 26.3207C198.796 25.9607 198.331 25.457 198 24.8097C197.673 24.1625 197.509 23.4061 197.509 22.5407C197.509 21.6752 197.673 20.917 198 20.2661C198.331 19.6152 198.796 19.1097 199.396 18.7497C199.996 18.3897 200.706 18.2097 201.524 18.2097C202.342 18.2097 203.051 18.3897 203.651 18.7497C204.251 19.1097 204.715 19.6152 205.042 20.2661C205.373 20.917 205.538 21.6752 205.538 22.5407C205.538 23.4061 205.373 24.1625 205.042 24.8097C204.715 25.457 204.251 25.9607 203.651 26.3207C203.051 26.6807 202.342 26.8607 201.524 26.8607ZM201.535 25.2788C201.978 25.2788 202.349 25.157 202.647 24.9134C202.946 24.6661 203.167 24.3352 203.313 23.9207C203.462 23.5061 203.536 23.0443 203.536 22.5352C203.536 22.0225 203.462 21.5588 203.313 21.1443C203.167 20.7261 202.946 20.3934 202.647 20.1461C202.349 19.8988 201.978 19.7752 201.535 19.7752C201.08 19.7752 200.702 19.8988 200.4 20.1461C200.102 20.3934 199.878 20.7261 199.729 21.1443C199.584 21.5588 199.511 22.0225 199.511 22.5352C199.511 23.0443 199.584 23.5061 199.729 23.9207C199.878 24.3352 200.102 24.6661 200.4 24.9134C200.702 25.157 201.08 25.2788 201.535 25.2788ZM209.189 21.7879V26.697H207.214V18.3188H209.101V19.7425H209.2C209.392 19.2734 209.7 18.9007 210.121 18.6243C210.547 18.3479 211.072 18.2097 211.698 18.2097C212.276 18.2097 212.78 18.3334 213.209 18.5807C213.641 18.8279 213.976 19.1861 214.212 19.6552C214.452 20.1243 214.571 20.6934 214.567 21.3625V26.697H212.592V21.6679C212.592 21.1079 212.447 20.6697 212.156 20.3534C211.869 20.037 211.471 19.8788 210.961 19.8788C210.616 19.8788 210.309 19.9552 210.04 20.1079C209.774 20.257 209.565 20.4734 209.412 20.757C209.263 21.0407 209.189 21.3843 209.189 21.7879ZM220.384 26.697V18.3188H222.299V19.7152H222.386C222.539 19.2316 222.801 18.8588 223.171 18.597C223.546 18.3316 223.973 18.1988 224.453 18.1988C224.562 18.1988 224.684 18.2043 224.819 18.2152C224.957 18.2225 225.071 18.2352 225.162 18.2534V20.0697C225.079 20.0407 224.946 20.0152 224.764 19.9934C224.586 19.9679 224.413 19.9552 224.246 19.9552C223.886 19.9552 223.562 20.0334 223.275 20.1897C222.991 20.3425 222.768 20.5552 222.604 20.8279C222.441 21.1007 222.359 21.4152 222.359 21.7716V26.697H220.384ZM228.735 26.8661C228.204 26.8661 227.726 26.7716 227.301 26.5825C226.879 26.3897 226.544 26.1061 226.297 25.7316C226.053 25.357 225.931 24.8952 225.931 24.3461C225.931 23.8734 226.019 23.4825 226.193 23.1734C226.368 22.8643 226.606 22.617 226.908 22.4316C227.21 22.2461 227.55 22.1061 227.928 22.0116C228.31 21.9134 228.704 21.8425 229.111 21.7988C229.602 21.7479 230.001 21.7025 230.306 21.6625C230.611 21.6188 230.833 21.5534 230.971 21.4661C231.113 21.3752 231.184 21.2352 231.184 21.0461V21.0134C231.184 20.6025 231.062 20.2843 230.819 20.0588C230.575 19.8334 230.224 19.7207 229.766 19.7207C229.282 19.7207 228.899 19.8261 228.615 20.037C228.335 20.2479 228.146 20.497 228.048 20.7843L226.204 20.5225C226.35 20.0134 226.59 19.5879 226.924 19.2461C227.259 18.9007 227.668 18.6425 228.151 18.4716C228.635 18.297 229.17 18.2097 229.755 18.2097C230.159 18.2097 230.561 18.257 230.961 18.3516C231.361 18.4461 231.726 18.6025 232.057 18.8207C232.388 19.0352 232.653 19.3279 232.853 19.6988C233.057 20.0697 233.159 20.5334 233.159 21.0897V26.697H231.261V25.5461H231.195C231.075 25.7788 230.906 25.997 230.688 26.2007C230.473 26.4007 230.202 26.5625 229.875 26.6861C229.551 26.8061 229.171 26.8661 228.735 26.8661ZM229.248 25.4152C229.644 25.4152 229.988 25.337 230.279 25.1807C230.57 25.0207 230.793 24.8097 230.95 24.5479C231.11 24.2861 231.19 24.0007 231.19 23.6916V22.7043C231.128 22.7552 231.022 22.8025 230.873 22.8461C230.728 22.8897 230.564 22.9279 230.382 22.9607C230.201 22.9934 230.021 23.0225 229.842 23.0479C229.664 23.0734 229.51 23.0952 229.379 23.1134C229.084 23.1534 228.821 23.2188 228.588 23.3097C228.355 23.4007 228.171 23.5279 228.037 23.6916C227.902 23.8516 227.835 24.0588 227.835 24.3134C227.835 24.677 227.968 24.9516 228.233 25.137C228.499 25.3225 228.837 25.4152 229.248 25.4152ZM239.328 18.3188V19.8461H234.511V18.3188H239.328ZM235.701 16.3116H237.675V24.177C237.675 24.4425 237.715 24.6461 237.795 24.7879C237.879 24.9261 237.988 25.0207 238.122 25.0716C238.257 25.1225 238.406 25.1479 238.57 25.1479C238.693 25.1479 238.806 25.1388 238.908 25.1207C239.013 25.1025 239.093 25.0861 239.148 25.0716L239.481 26.6152C239.375 26.6516 239.224 26.6916 239.028 26.7352C238.835 26.7788 238.599 26.8043 238.319 26.8116C237.824 26.8261 237.379 26.7516 236.982 26.5879C236.586 26.4207 236.271 26.1625 236.039 25.8134C235.81 25.4643 235.697 25.0279 235.701 24.5043V16.3116ZM244.598 26.8607C243.758 26.8607 243.033 26.6861 242.422 26.337C241.815 25.9843 241.347 25.4861 241.02 24.8425C240.693 24.1952 240.529 23.4334 240.529 22.557C240.529 21.6952 240.693 20.9388 241.02 20.2879C241.351 19.6334 241.813 19.1243 242.405 18.7607C242.998 18.3934 243.695 18.2097 244.495 18.2097C245.011 18.2097 245.498 18.2934 245.956 18.4607C246.418 18.6243 246.825 18.8788 247.178 19.2243C247.535 19.5697 247.815 20.0097 248.018 20.5443C248.222 21.0752 248.324 21.7079 248.324 22.4425V23.0479H241.456V21.717H246.431C246.427 21.3388 246.345 21.0025 246.185 20.7079C246.025 20.4097 245.802 20.1752 245.515 20.0043C245.231 19.8334 244.9 19.7479 244.522 19.7479C244.118 19.7479 243.764 19.8461 243.458 20.0425C243.153 20.2352 242.915 20.4897 242.744 20.8061C242.576 21.1188 242.491 21.4625 242.487 21.837V22.9988C242.487 23.4861 242.576 23.9043 242.755 24.2534C242.933 24.5988 243.182 24.8643 243.502 25.0497C243.822 25.2316 244.196 25.3225 244.625 25.3225C244.913 25.3225 245.173 25.2825 245.405 25.2025C245.638 25.1188 245.84 24.997 246.011 24.837C246.182 24.677 246.311 24.4788 246.398 24.2425L248.242 24.4497C248.125 24.937 247.904 25.3625 247.576 25.7261C247.253 26.0861 246.838 26.3661 246.333 26.5661C245.827 26.7625 245.249 26.8607 244.598 26.8607ZM260.644 26.8716L255.037 21.2643C254.59 20.817 254.291 20.297 254.142 19.7043C253.997 19.1116 253.999 18.5225 254.148 17.937C254.297 17.3479 254.593 16.8352 255.037 16.3988C255.491 15.9516 256.01 15.6552 256.591 15.5097C257.177 15.3607 257.761 15.3607 258.342 15.5097C258.928 15.6588 259.448 15.9552 259.902 16.3988L260.644 17.1188L261.386 16.3988C261.844 15.9552 262.364 15.6588 262.946 15.5097C263.528 15.3607 264.11 15.3607 264.691 15.5097C265.277 15.6552 265.797 15.9516 266.251 16.3988C266.695 16.8352 266.991 17.3479 267.141 17.937C267.29 18.5225 267.29 19.1116 267.141 19.7043C266.995 20.297 266.699 20.817 266.251 21.2643L260.644 26.8716Z" fill="white"></path><path d="M143.216 51.7775C142.464 52.4283 141.349 52.4283 140.597 51.7775L128.604 41.3914L155.209 41.3914L143.216 51.7775Z" fill="#FF9C27"></path><defs><linearGradient id="paint0_linear_1816_2629" x1="-0.000366211" y1="0.677002" x2="-0.000366211" y2="41.717" gradientUnits="userSpaceOnUse"><stop stop-color="#EC6F3A"></stop><stop offset="0.552083" stop-color="#F48737"></stop><stop offset="1" stop-color="#FF9C27"></stop></linearGradient><linearGradient id="paint1_linear_1816_2629" x1="142.2" y1="0.677002" x2="142.2" y2="41.717" gradientUnits="userSpaceOnUse"><stop stop-color="#E6AB39"></stop><stop offset="1" stop-color="#E1AB42"></stop></linearGradient></defs></svg>