<svg xmlns="http://www.w3.org/2000/svg" width="1.2em" height="1.2em" viewBox="0 0 21 20" fill="#F66C30"><path d="M15.5 15.8333H5.50004C4.837 15.8333 4.20111 15.5699 3.73227 15.1011C3.26343 14.6323 3.00004 13.9964 3.00004 13.3333V6.66667C3.00004 6.44565 2.91224 6.23369 2.75596 6.07741C2.59968 5.92113 2.38772 5.83333 2.16671 5.83333C1.94569 5.83333 1.73373 5.92113 1.57745 6.07741C1.42117 6.23369 1.33337 6.44565 1.33337 6.66667V13.3333C1.33337 14.4384 1.77236 15.4982 2.55376 16.2796C2.94067 16.6665 3.4 16.9734 3.90553 17.1828C4.41105 17.3922 4.95287 17.5 5.50004 17.5H15.5C15.7211 17.5 15.933 17.4122 16.0893 17.2559C16.2456 17.0996 16.3334 16.8877 16.3334 16.6667C16.3334 16.4457 16.2456 16.2337 16.0893 16.0774C15.933 15.9211 15.7211 15.8333 15.5 15.8333ZM12.1667 9.16667H8.83337C8.61236 9.16667 8.4004 9.25446 8.24412 9.41074C8.08784 9.56702 8.00004 9.77899 8.00004 10C8.00004 10.221 8.08784 10.433 8.24412 10.5893C8.4004 10.7455 8.61236 10.8333 8.83337 10.8333H12.1667C12.3877 10.8333 12.5997 10.7455 12.756 10.5893C12.9122 10.433 13 10.221 13 10C13 9.77899 12.9122 9.56702 12.756 9.41074C12.5997 9.25446 12.3877 9.16667 12.1667 9.16667ZM19.6667 8.28333C19.658 8.20678 19.6413 8.13136 19.6167 8.05833V7.98333C19.5766 7.89765 19.5232 7.81889 19.4584 7.75L14.4584 2.75C14.3895 2.68518 14.3107 2.63173 14.225 2.59167H14.15C14.0654 2.54312 13.9719 2.51195 13.875 2.5H7.16671C6.50367 2.5 5.86778 2.76339 5.39894 3.23223C4.9301 3.70107 4.66671 4.33696 4.66671 5V11.6667C4.66671 12.3297 4.9301 12.9656 5.39894 13.4344C5.86778 13.9033 6.50367 14.1667 7.16671 14.1667H17.1667C17.8297 14.1667 18.4656 13.9033 18.9345 13.4344C19.4033 12.9656 19.6667 12.3297 19.6667 11.6667V8.33333C19.6667 8.33333 19.6667 8.33333 19.6667 8.28333ZM14.6667 5.34167L16.825 7.5H15.5C15.279 7.5 15.0671 7.4122 14.9108 7.25592C14.7545 7.09964 14.6667 6.88768 14.6667 6.66667V5.34167ZM18 11.6667C18 11.8877 17.9122 12.0996 17.756 12.2559C17.5997 12.4122 17.3877 12.5 17.1667 12.5H7.16671C6.94569 12.5 6.73373 12.4122 6.57745 12.2559C6.42117 12.0996 6.33337 11.8877 6.33337 11.6667V5C6.33337 4.77899 6.42117 4.56702 6.57745 4.41074C6.73373 4.25446 6.94569 4.16667 7.16671 4.16667H13V6.66667C13 7.32971 13.2634 7.96559 13.7323 8.43443C14.2011 8.90327 14.837 9.16667 15.5 9.16667H18V11.6667ZM8.83337 7.5H10.5C10.7211 7.5 10.933 7.4122 11.0893 7.25592C11.2456 7.09964 11.3334 6.88768 11.3334 6.66667C11.3334 6.44565 11.2456 6.23369 11.0893 6.07741C10.933 5.92113 10.7211 5.83333 10.5 5.83333H8.83337C8.61236 5.83333 8.4004 5.92113 8.24412 6.07741C8.08784 6.23369 8.00004 6.44565 8.00004 6.66667C8.00004 6.88768 8.08784 7.09964 8.24412 7.25592C8.4004 7.4122 8.61236 7.5 8.83337 7.5Z"></path></svg>