<svg xmlns="http://www.w3.org/2000/svg" width="1.2em" height="1.2em" viewBox="0 0 21 20" fill="#F66C30"><path d="M18.5666 14.7083L12.7333 3.04167C12.5251 2.62784 12.206 2.27999 11.8117 2.03693C11.4173 1.79387 10.9632 1.66516 10.4999 1.66516C10.0367 1.66516 9.58257 1.79387 9.18821 2.03693C8.79386 2.27999 8.47479 2.62784 8.26661 3.04167L2.43328 14.7083C2.20412 15.1688 2.12254 15.6887 2.19965 16.1971C2.27677 16.7056 2.50884 17.178 2.86421 17.5497C3.21958 17.9215 3.68096 18.1746 4.18545 18.2746C4.68994 18.3746 5.21299 18.3165 5.68328 18.1083L10.1583 16.1083C10.2665 16.063 10.3826 16.0396 10.4999 16.0396C10.6173 16.0396 10.7334 16.063 10.8416 16.1083L15.3166 18.1083C15.7869 18.3165 16.3099 18.3746 16.8144 18.2746C17.3189 18.1746 17.7803 17.9215 18.1357 17.5497C18.4911 17.178 18.7231 16.7056 18.8002 16.1971C18.8774 15.6887 18.7958 15.1688 18.5666 14.7083ZM16.8999 16.375C16.781 16.4989 16.6267 16.583 16.4581 16.6158C16.2896 16.6486 16.115 16.6285 15.9583 16.5583L11.4833 14.5667C11.1633 14.4242 10.8169 14.3506 10.4666 14.3506C10.1163 14.3506 9.76995 14.4242 9.44994 14.5667L5.00828 16.5833C4.85241 16.6511 4.67957 16.6695 4.51292 16.6362C4.34627 16.6029 4.19378 16.5195 4.0759 16.3971C3.95802 16.2747 3.88039 16.1191 3.8534 15.9514C3.82642 15.7836 3.85139 15.6115 3.92494 15.4583L9.75828 3.79167C9.82821 3.65517 9.93446 3.54062 10.0653 3.46063C10.1962 3.38063 10.3466 3.33831 10.4999 3.33831C10.6533 3.33831 10.8037 3.38063 10.9346 3.46063C11.0654 3.54062 11.1717 3.65517 11.2416 3.79167L17.0749 15.4583C17.1503 15.611 17.1772 15.783 17.1519 15.9514C17.1265 16.1198 17.0503 16.2763 16.9333 16.4L16.8999 16.375Z"></path></svg>