<svg width="134" height="32" viewBox="0 0 134 32" fill="none" xmlns="http://www.w3.org/2000/svg" style="display: block;">
         <g filter="url(#filter0_b_1766_80120)">
         <rect width="134" height="32" rx="8" fill="black" fill-opacity="0.2">
         </rect><rect x="0.5" y="0.5" width="133" height="31" rx="7.5" stroke="white" stroke-opacity="0.12">
         </rect><path d="M12.8807 21V13.7273H15.3381C15.9086 13.7273 16.375 13.8303 16.7372 14.0362C17.1018 14.2398 17.3717 14.5156 17.5469 14.8636C17.7221 15.2116 17.8097 15.5999 17.8097 16.0284C17.8097 16.4569 17.7221 16.8464 17.5469 17.1967C17.3741 17.5471 17.1065 17.8265 16.7443 18.0348C16.3821 18.2408 15.9181 18.3438 15.3523 18.3438H13.5909V17.5625H15.3239C15.7145 17.5625 16.0282 17.495 16.2649 17.3601C16.5017 17.2251 16.6733 17.0429 16.7798 16.8132C16.8887 16.5812 16.9432 16.3196 16.9432 16.0284C16.9432 15.7372 16.8887 15.4768 16.7798 15.2472C16.6733 15.0175 16.5005 14.8376 16.2614 14.7074C16.0223 14.5748 15.705 14.5085 15.3097 14.5085H13.7614V21H12.8807ZM21.152 21.1136C20.6596 21.1136 20.2275 20.9964 19.8559 20.7621C19.4865 20.5277 19.1977 20.1998 18.9894 19.7784C18.7834 19.357 18.6804 18.8646 18.6804 18.3011C18.6804 17.733 18.7834 17.237 18.9894 16.8132C19.1977 16.3894 19.4865 16.0604 19.8559 15.826C20.2275 15.5916 20.6596 15.4744 21.152 15.4744C21.6444 15.4744 22.0753 15.5916 22.4446 15.826C22.8163 16.0604 23.1051 16.3894 23.3111 16.8132C23.5194 17.237 23.6236 17.733 23.6236 18.3011C23.6236 18.8646 23.5194 19.357 23.3111 19.7784C23.1051 20.1998 22.8163 20.5277 22.4446 20.7621C22.0753 20.9964 21.6444 21.1136 21.152 21.1136ZM21.152 20.3608C21.5261 20.3608 21.8338 20.2649 22.0753 20.0732C22.3168 19.8814 22.4955 19.6293 22.6115 19.3168C22.7275 19.0043 22.7855 18.6657 22.7855 18.3011C22.7855 17.9366 22.7275 17.5968 22.6115 17.282C22.4955 16.9671 22.3168 16.7126 22.0753 16.5185C21.8338 16.3243 21.5261 16.2273 21.152 16.2273C20.778 16.2273 20.4702 16.3243 20.2287 16.5185C19.9872 16.7126 19.8085 16.9671 19.6925 17.282C19.5765 17.5968 19.5185 17.9366 19.5185 18.3011C19.5185 18.6657 19.5765 19.0043 19.6925 19.3168C19.8085 19.6293 19.9872 19.8814 20.2287 20.0732C20.4702 20.2649 20.778 20.3608 21.152 20.3608ZM25.8332 21L24.1712 15.5455H25.0519L26.2309 19.7216H26.2877L27.4525 15.5455H28.3474L29.4979 19.7074H29.5547L30.7337 15.5455H31.6144L29.9525 21H29.1286L27.9354 16.8097H27.8502L26.657 21H25.8332ZM34.7037 21.1136C34.1782 21.1136 33.7248 20.9976 33.3437 20.7656C32.9649 20.5312 32.6725 20.2045 32.4665 19.7855C32.2629 19.3641 32.1611 18.8741 32.1611 18.3153C32.1611 17.7566 32.2629 17.2642 32.4665 16.8381C32.6725 16.4096 32.959 16.0758 33.3259 15.8366C33.6952 15.5952 34.1261 15.4744 34.6185 15.4744C34.9026 15.4744 35.1831 15.5218 35.4601 15.6165C35.7371 15.7112 35.9893 15.8651 36.2165 16.0781C36.4438 16.2888 36.6249 16.5682 36.7599 16.9162C36.8948 17.2642 36.9623 17.6927 36.9623 18.2017V18.5568H32.7577V17.8324H36.11C36.11 17.5246 36.0484 17.25 35.9253 17.0085C35.8046 16.767 35.6318 16.5765 35.4069 16.4368C35.1843 16.2971 34.9215 16.2273 34.6185 16.2273C34.2847 16.2273 33.9959 16.3101 33.752 16.4759C33.5106 16.6392 33.3247 16.8523 33.1945 17.1151C33.0643 17.3778 32.9992 17.6596 32.9992 17.9602V18.4432C32.9992 18.8551 33.0702 19.2043 33.2123 19.4908C33.3567 19.7749 33.5567 19.9915 33.8124 20.1406C34.0681 20.2874 34.3652 20.3608 34.7037 20.3608C34.9239 20.3608 35.1228 20.33 35.3003 20.2685C35.4803 20.2045 35.6353 20.1098 35.7655 19.9844C35.8957 19.8565 35.9964 19.6979 36.0674 19.5085L36.877 19.7358C36.7918 20.0104 36.6486 20.2519 36.4474 20.4602C36.2461 20.6662 35.9975 20.8272 35.7016 20.9432C35.4057 21.0568 35.0731 21.1136 34.7037 21.1136ZM38.1171 21V15.5455H38.9268V16.3693H38.9836C39.083 16.0994 39.263 15.8804 39.5234 15.7124C39.7838 15.5443 40.0774 15.4602 40.4041 15.4602C40.4656 15.4602 40.5426 15.4614 40.6349 15.4638C40.7272 15.4661 40.797 15.4697 40.8444 15.4744V16.3267C40.816 16.3196 40.7509 16.3089 40.6491 16.2947C40.5497 16.2782 40.4443 16.2699 40.333 16.2699C40.0679 16.2699 39.8311 16.3255 39.6228 16.4368C39.4168 16.5457 39.2535 16.6972 39.1327 16.8913C39.0144 17.0831 38.9552 17.3021 38.9552 17.5483V21H38.1171ZM43.8387 21.1136C43.3132 21.1136 42.8598 20.9976 42.4787 20.7656C42.0999 20.5312 41.8075 20.2045 41.6015 19.7855C41.3979 19.3641 41.2961 18.8741 41.2961 18.3153C41.2961 17.7566 41.3979 17.2642 41.6015 16.8381C41.8075 16.4096 42.094 16.0758 42.4609 15.8366C42.8302 15.5952 43.2611 15.4744 43.7535 15.4744C44.0376 15.4744 44.3181 15.5218 44.5951 15.6165C44.8721 15.7112 45.1243 15.8651 45.3515 16.0781C45.5788 16.2888 45.7599 16.5682 45.8949 16.9162C46.0298 17.2642 46.0973 17.6927 46.0973 18.2017V18.5568H41.8927V17.8324H45.245C45.245 17.5246 45.1834 17.25 45.0603 17.0085C44.9396 16.767 44.7668 16.5765 44.5419 16.4368C44.3193 16.2971 44.0565 16.2273 43.7535 16.2273C43.4197 16.2273 43.1309 16.3101 42.887 16.4759C42.6456 16.6392 42.4597 16.8523 42.3295 17.1151C42.1993 17.3778 42.1342 17.6596 42.1342 17.9602V18.4432C42.1342 18.8551 42.2052 19.2043 42.3473 19.4908C42.4917 19.7749 42.6917 19.9915 42.9474 20.1406C43.2031 20.2874 43.5002 20.3608 43.8387 20.3608C44.0589 20.3608 44.2578 20.33 44.4353 20.2685C44.6153 20.2045 44.7703 20.1098 44.9005 19.9844C45.0307 19.8565 45.1314 19.6979 45.2024 19.5085L46.012 19.7358C45.9268 20.0104 45.7836 20.2519 45.5824 20.4602C45.3811 20.6662 45.1325 20.8272 44.8366 20.9432C44.5407 21.0568 44.2081 21.1136 43.8387 21.1136ZM49.3118 21.1136C48.8572 21.1136 48.456 20.9988 48.1079 20.7692C47.7599 20.5372 47.4877 20.2105 47.2912 19.7891C47.0947 19.3653 46.9964 18.8646 46.9964 18.2869C46.9964 17.714 47.0947 17.2169 47.2912 16.7955C47.4877 16.3741 47.7611 16.0485 48.1115 15.8189C48.4619 15.5893 48.8667 15.4744 49.326 15.4744C49.6811 15.4744 49.9616 15.5336 50.1676 15.652C50.3759 15.768 50.5346 15.9006 50.6435 16.0497C50.7547 16.1965 50.8411 16.3172 50.9027 16.4119H50.9737V13.7273H51.8118V21H51.0021V20.1619H50.9027C50.8411 20.2614 50.7535 20.3868 50.6399 20.5384C50.5263 20.6875 50.3641 20.8213 50.1534 20.9396C49.9427 21.0556 49.6622 21.1136 49.3118 21.1136ZM49.4254 20.3608C49.7616 20.3608 50.0457 20.2732 50.2777 20.098C50.5097 19.9205 50.6861 19.6754 50.8068 19.3629C50.9275 19.0481 50.9879 18.6847 50.9879 18.2727C50.9879 17.8655 50.9287 17.5092 50.8104 17.2038C50.692 16.8961 50.5168 16.657 50.2848 16.4865C50.0528 16.3137 49.7663 16.2273 49.4254 16.2273C49.0703 16.2273 48.7744 16.3184 48.5376 16.5007C48.3033 16.6806 48.1269 16.9257 48.0085 17.2358C47.8925 17.5436 47.8345 17.8892 47.8345 18.2727C47.8345 18.661 47.8937 19.0137 48.0121 19.331C48.1328 19.6458 48.3104 19.8968 48.5447 20.0838C48.7815 20.2685 49.075 20.3608 49.4254 20.3608ZM56.1492 21V13.7273H56.9873V16.4119H57.0583C57.1198 16.3172 57.2051 16.1965 57.314 16.0497C57.4252 15.9006 57.5839 15.768 57.7898 15.652C57.9982 15.5336 58.2799 15.4744 58.635 15.4744C59.0943 15.4744 59.4991 15.5893 59.8495 15.8189C60.1999 16.0485 60.4733 16.3741 60.6698 16.7955C60.8663 17.2169 60.9645 17.714 60.9645 18.2869C60.9645 18.8646 60.8663 19.3653 60.6698 19.7891C60.4733 20.2105 60.201 20.5372 59.853 20.7692C59.505 20.9988 59.1037 21.1136 58.6492 21.1136C58.2988 21.1136 58.0183 21.0556 57.8076 20.9396C57.5969 20.8213 57.4347 20.6875 57.3211 20.5384C57.2074 20.3868 57.1198 20.2614 57.0583 20.1619H56.9589V21H56.1492ZM56.9731 18.2727C56.9731 18.6847 57.0334 19.0481 57.1542 19.3629C57.2749 19.6754 57.4513 19.9205 57.6833 20.098C57.9153 20.2732 58.1994 20.3608 58.5356 20.3608C58.8859 20.3608 59.1783 20.2685 59.4127 20.0838C59.6494 19.8968 59.827 19.6458 59.9454 19.331C60.0661 19.0137 60.1265 18.661 60.1265 18.2727C60.1265 17.8892 60.0673 17.5436 59.9489 17.2358C59.8329 16.9257 59.6565 16.6806 59.4198 16.5007C59.1854 16.3184 58.8907 16.2273 58.5356 16.2273C58.1947 16.2273 57.9082 16.3137 57.6762 16.4865C57.4442 16.657 57.269 16.8961 57.1506 17.2038C57.0322 17.5092 56.9731 17.8655 56.9731 18.2727ZM62.471 23.0455C62.3289 23.0455 62.2023 23.0336 62.091 23.0099C61.9797 22.9886 61.9028 22.9673 61.8602 22.946L62.0732 22.2074C62.2768 22.2595 62.4568 22.2784 62.613 22.2642C62.7693 22.25 62.9077 22.1802 63.0285 22.0547C63.1516 21.9316 63.264 21.7315 63.3658 21.4545L63.5221 21.0284L61.505 15.5455H62.4141L63.9198 19.892H63.9766L65.4823 15.5455H66.3914L64.0761 21.7955C63.9719 22.0772 63.8429 22.3104 63.689 22.495C63.5351 22.6821 63.3564 22.8205 63.1528 22.9105C62.9515 23.0005 62.7243 23.0455 62.471 23.0455ZM74.6355 21H72.3286L75.8436 10.8182H78.6177L82.1277 21H79.8208L77.2704 13.1449H77.1909L74.6355 21ZM74.4913 16.9979H79.9402V18.6783H74.4913V16.9979ZM86.7286 13.3636V14.9545H82.1299V13.3636H86.7286ZM83.174 11.5341H85.2919V18.6534C85.2919 18.849 85.3217 19.0014 85.3813 19.1108C85.441 19.2169 85.5239 19.2914 85.6299 19.3345C85.7393 19.3776 85.8652 19.3991 86.0078 19.3991C86.1072 19.3991 86.2066 19.3909 86.3061 19.3743C86.4055 19.3544 86.4817 19.3395 86.5348 19.3295L86.8679 20.9055C86.7618 20.9387 86.6126 20.9768 86.4204 21.0199C86.2282 21.0663 85.9945 21.0945 85.7194 21.1044C85.209 21.1243 84.7616 21.0563 84.3771 20.9006C83.9959 20.7448 83.6993 20.5028 83.4872 20.1747C83.275 19.8466 83.1706 19.4323 83.174 18.9318V11.5341ZM87.9403 21V13.3636H89.9935V14.696H90.0731C90.2123 14.2221 90.4459 13.8641 90.7741 13.6222C91.1022 13.3769 91.48 13.2543 91.9076 13.2543C92.0137 13.2543 92.128 13.2609 92.2506 13.2741C92.3733 13.2874 92.481 13.3056 92.5738 13.3288V15.2081C92.4744 15.1783 92.3368 15.1518 92.1611 15.1286C91.9855 15.1054 91.8247 15.0938 91.6789 15.0938C91.3673 15.0938 91.0889 15.1617 90.8437 15.2976C90.6017 15.4302 90.4095 15.6158 90.267 15.8544C90.1278 16.093 90.0582 16.3681 90.0582 16.6797V21H87.9403ZM93.5008 21V13.3636H95.6187V21H93.5008ZM94.5647 12.3793C94.2498 12.3793 93.9797 12.2749 93.7543 12.0661C93.5323 11.8539 93.4212 11.6004 93.4212 11.3054C93.4212 11.0137 93.5323 10.7635 93.7543 10.5547C93.9797 10.3426 94.2498 10.2365 94.5647 10.2365C94.8796 10.2365 95.148 10.3426 95.3701 10.5547C95.5955 10.7635 95.7082 11.0137 95.7082 11.3054C95.7082 11.6004 95.5955 11.8539 95.3701 12.0661C95.148 12.2749 94.8796 12.3793 94.5647 12.3793ZM99.3248 21.1442C98.8376 21.1442 98.4034 21.0597 98.0222 20.8906C97.6411 20.7183 97.3395 20.4647 97.1174 20.13C96.8987 19.7919 96.7893 19.371 96.7893 18.8672C96.7893 18.4429 96.8672 18.0866 97.0229 17.7983C97.1787 17.5099 97.3908 17.2779 97.6593 17.1023C97.9278 16.9266 98.2327 16.794 98.5741 16.7045C98.9188 16.6151 99.28 16.5521 99.6579 16.5156C100.102 16.4692 100.46 16.4261 100.732 16.3864C101.004 16.3433 101.201 16.2803 101.323 16.1974C101.446 16.1146 101.507 15.992 101.507 15.8295V15.7997C101.507 15.4848 101.408 15.2412 101.209 15.0689C101.013 14.8965 100.735 14.8104 100.374 14.8104C99.9926 14.8104 99.6894 14.8949 99.464 15.0639C99.2386 15.2296 99.0895 15.4384 99.0166 15.6903L97.0577 15.5312C97.1572 15.0672 97.3527 14.6662 97.6444 14.3281C97.9361 13.9867 98.3122 13.7249 98.7729 13.5426C99.237 13.357 99.7739 13.2642 100.384 13.2642C100.808 13.2642 101.214 13.3139 101.602 13.4134C101.993 13.5128 102.339 13.6669 102.641 13.8757C102.946 14.0845 103.186 14.353 103.362 14.6811C103.537 15.0059 103.625 15.3954 103.625 15.8494V21H101.617V19.9411H101.557C101.434 20.1797 101.27 20.3902 101.065 20.5724C100.859 20.7514 100.612 20.8923 100.324 20.995C100.036 21.0945 99.7026 21.1442 99.3248 21.1442ZM99.9313 19.6825C100.243 19.6825 100.518 19.6212 100.757 19.4986C100.995 19.3726 101.183 19.2036 101.318 18.9915C101.454 18.7794 101.522 18.5391 101.522 18.2706V17.4602C101.456 17.5033 101.365 17.5431 101.249 17.5795C101.136 17.6127 101.009 17.6442 100.866 17.674C100.723 17.7005 100.581 17.7254 100.438 17.7486C100.296 17.7685 100.167 17.7867 100.051 17.8033C99.8021 17.8397 99.585 17.8977 99.3994 17.9773C99.2138 18.0568 99.0696 18.1645 98.9668 18.3004C98.8641 18.433 98.8127 18.5987 98.8127 18.7976C98.8127 19.0859 98.9171 19.3063 99.1259 19.4588C99.338 19.608 99.6065 19.6825 99.9313 19.6825ZM109.967 21H107.66L111.175 10.8182H113.95L117.459 21H115.153L112.602 13.1449H112.523L109.967 21ZM109.823 16.9979H115.272V18.6783H109.823V16.9979ZM120.67 10.8182V21H118.517V10.8182H120.67Z" fill="url(#paint0_linear_1766_80120)">
         </path></g><defs><filter id="filter0_b_1766_80120" x="-20" y="-20" width="174" height="72" filterUnits="userSpaceOnUse" color-interpolation-filters="sRGB">
         <feFlood flood-opacity="0" result="BackgroundImageFix">
         </feFlood><feGaussianBlur in="BackgroundImageFix" stdDeviation="10">
         </feGaussianBlur><feComposite in2="SourceAlpha" operator="in" result="effect1_backgroundBlur_1766_80120">
         </feComposite><feBlend mode="normal" in="SourceGraphic" in2="effect1_backgroundBlur_1766_80120" result="shape">
         </feBlend></filter><linearGradient id="paint0_linear_1766_80120" x1="8" y1="10" x2="132" y2="18.5" gradientUnits="userSpaceOnUse">
         <stop stop-color="#FFA97E">
         </stop><stop offset="1" stop-color="#FFCF97">
         </stop></linearGradient></defs></svg>